<?xml version="1.0" encoding="UTF-8"?><svg id="Layer_2" xmlns="http://www.w3.org/2000/svg" xmlns:xlink="http://www.w3.org/1999/xlink" viewBox="0 0 613.89 550"><defs><style>.cls-1{fill:url(#linear-gradient);}.cls-2{font-size:49.65px;letter-spacing:.03em;}.cls-2,.cls-3{fill:#183254;font-family:Poppins-Medium, Poppins;font-weight:500;}.cls-3{font-size:93px;letter-spacing:.2em;}</style><linearGradient id="linear-gradient" x1="181.56" y1="145.46" x2="385.3" y2="183.67" gradientUnits="userSpaceOnUse"><stop offset="0" stop-color="#69c8f3"/><stop offset="1" stop-color="#183254"/></linearGradient></defs><g id="Layer_1-2"><path class="cls-1" d="m393.3,302.13c-1.41-.88-3.26-.44-4.13.97-11.31,18.21-37.33,26.17-57.18,29.64-31.2,5.46-61.85.53-84.09-13.52-21.72-13.72-37.91-38.02-43.31-65.01-3.56-17.8-2.34-34.88,3.54-49.4,14.52-35.85,51.89-51.57,92.21-65.74,20.02-4.73,47.58-2.97,59.6,17.55,7.74,13.22,5.09,28.54-6.75,39.03-10.61,9.4-26.34,14.46-48.1,15.45-1.66.08-2.94,1.48-2.86,3.13.07,1.61,1.4,2.86,3,2.86.05,0,.09,0,.14,0,23.19-1.06,40.13-6.61,51.81-16.96,14.08-12.48,17.2-30.75,7.95-46.56-10.45-17.85-30.73-23.34-49.53-22.62,9.23-6.72,17.16-16.21,22.75-27.54,9.5-19.26,7.61-38.77,5.6-59.52l-3.61-37.17c-.11-1.15-.45-4.66-3.2-6.14-2.75-1.49-5.72.07-8.12,1.32-.45.23-.9.47-1.34.68-3.23,1.55-6.67,2.91-10.01,4.22l-.29.11c-5.94,2.34-12.12,4.51-18.1,6.6-6.43,2.25-13.08,4.58-19.54,7.16-42.23,16.89-50.61,67.5-50.21,106.99.02,1.69.75,3.29,2.01,4.41,1.26,1.12,2.95,1.65,4.62,1.47,23.83-2.63,42.67-15.7,54.46-37.8,8.81-16.51,10.58-32.05,10.65-32.7.18-1.65-1.01-3.13-2.66-3.31-1.65-.18-3.13,1.01-3.31,2.66-.02.15-1.7,15.02-9.98,30.52-10.97,20.56-27.74,32.22-49.8,34.68-.39-37.61,7.35-85.73,46.43-101.35,6.33-2.53,12.92-4.84,19.29-7.07,6.03-2.11,12.27-4.3,18.32-6.68l.29-.11c3.43-1.35,6.98-2.75,10.41-4.4.5-.24,1.01-.51,1.52-.77.67-.35,1.69-.88,2.37-1.12.07.26.15.65.2,1.21l3.62,37.26c1.92,19.78,3.73,38.46-5.02,56.19-7.76,15.74-20.32,27.61-34.43,32.57-33.42,11.74-79.19,27.82-95.95,69.21-6.32,15.61-7.66,33.88-3.86,52.83,5.8,29,22.57,54.12,45.99,68.91,17.26,10.9,39.21,16.62,62.6,16.61,8.44,0,17.07-.75,25.73-2.26,21.05-3.68,48.76-12.29,61.24-32.39.87-1.41.44-3.26-.97-4.13Z"/><text class="cls-2" transform="translate(6.42 521.11)"><tspan x="0" y="0">CLINICAL PSYCHOLOGY</tspan></text><text class="cls-3" transform="translate(0 453.83)"><tspan x="0" y="0">EMBODIED</tspan></text></g></svg>